<svg xmlns="http://www.w3.org/2000/svg" xmlns:xlink="http://www.w3.org/1999/xlink" width="36" height="38" viewBox="0 0 36 38">
    <defs>
        <filter id="q721igalya" width="125%" height="131.2%" x="-12.5%" y="-12.5%" filterUnits="objectBoundingBox">
            <feOffset dy="2" in="SourceAlpha" result="shadowOffsetOuter1"/>
            <feGaussianBlur in="shadowOffsetOuter1" result="shadowBlurOuter1" stdDeviation="1"/>
            <feColorMatrix in="shadowBlurOuter1" result="shadowMatrixOuter1" values="0 0 0 0 0 0 0 0 0 0 0 0 0 0 0 0 0 0 0.103884397 0"/>
            <feOffset in="SourceAlpha" result="shadowOffsetOuter2"/>
            <feGaussianBlur in="shadowOffsetOuter2" result="shadowBlurOuter2" stdDeviation="1"/>
            <feColorMatrix in="shadowBlurOuter2" result="shadowMatrixOuter2" values="0 0 0 0 0 0 0 0 0 0 0 0 0 0 0 0 0 0 0.101316652 0"/>
            <feMerge>
                <feMergeNode in="shadowMatrixOuter1"/>
                <feMergeNode in="shadowMatrixOuter2"/>
            </feMerge>
        </filter>
        <rect id="whce6auyjb" width="32" height="32" x="0" y="0" rx="4"/>
    </defs>
    <g fill="none" fill-rule="evenodd">
        <g>
            <g>
                <g transform="translate(-310 -366) translate(312 368)">
                    <use fill="#000" filter="url(#q721igalya)" xlink:href="#whce6auyjb"/>
                    <use fill="#FEFEFE" xlink:href="#whce6auyjb"/>
                </g>
                <g>
                    <path d="M0 0L21.333 0 21.333 21.333 0 21.333z" transform="translate(-310 -366) translate(312 368) translate(5.333 5.333)"/>
                    <path fill="#3D459C" fill-rule="nonzero" d="M10.667 7.111c-1.965 0-3.556 1.591-3.556 3.556 0 1.964 1.591 3.555 3.556 3.555 1.964 0 3.555-1.59 3.555-3.555s-1.59-3.556-3.555-3.556zm7.946 2.667c-.409-3.707-3.35-6.65-7.057-7.058V.889H9.778V2.72c-3.707.409-6.65 3.351-7.058 7.058H.889v1.778H2.72c.409 3.706 3.351 6.648 7.058 7.057v1.831h1.778v-1.83c3.706-.41 6.648-3.352 7.057-7.058h1.831V9.778h-1.83zm-7.946 7.11c-3.44 0-6.223-2.781-6.223-6.221s2.783-6.223 6.223-6.223 6.222 2.783 6.222 6.223-2.782 6.222-6.222 6.222z" transform="translate(-310 -366) translate(312 368) translate(5.333 5.333)"/>
                </g>
            </g>
        </g>
    </g>
</svg>
