<svg xmlns="http://www.w3.org/2000/svg" width="32" height="32" viewBox="0 0 32 32">
    <g fill="none" fill-rule="evenodd">
        <g>
            <g>
                <path d="M0 0L32 0 32 32 0 32z" transform="translate(-164 -278) translate(164 278)"/>
                <path fill="#323C9F" fill-rule="nonzero" d="M16 2.667c-5.16 0-9.333 4.173-9.333 9.333C6.667 19 16 29.333 16 29.333S25.333 19 25.333 12c0-5.16-4.173-9.333-9.333-9.333zm0 12.666c-1.84 0-3.333-1.493-3.333-3.333S14.16 8.667 16 8.667 19.333 10.16 19.333 12 17.84 15.333 16 15.333z" transform="translate(-164 -278) translate(164 278)"/>
            </g>
        </g>
    </g>
</svg>
